<?xml version="1.0" encoding="utf-8"?><svg viewBox="0 0 20 20" xmlns="http://www.w3.org/2000/svg" xmlns:xlink="http://www.w3.org/1999/xlink"><style>:root>svg{display:none}:root>svg:target{display:block}</style><svg viewBox="0 0 10 6" id="arrow-down" xmlns="http://www.w3.org/2000/svg"><path d="M.5.5L5 5 9.5.5"/></svg><svg viewBox="0 0 18 18" id="dest-icon" xmlns="http://www.w3.org/2000/svg"><path d="M17.068 1.76l-6.875 15a.625.625 0 01-1.19-.208L8.42 9.579l-6.973-.581a.625.625 0 01-.208-1.191l15-6.875a.625.625 0 01.828.828z"/></svg><svg viewBox="0 0 20 20" id="heart" xmlns="http://www.w3.org/2000/svg"><path d="M18.364 2.455A5.479 5.479 0 0014.362.708a5.485 5.485 0 00-4.007 1.746L10 2.827l-.353-.373a5.469 5.469 0 00-8.012 0 6.134 6.134 0 000 8.34l7.847 8.275a.715.715 0 001.037 0l7.845-8.275a6.133 6.133 0 000-8.34zM17.33 9.81l-7.328 7.729-7.33-7.73a4.687 4.687 0 010-6.372 4.04 4.04 0 015.94 0l.87.92a.736.736 0 001.038 0l.872-.919a4.04 4.04 0 015.938 0c1.68 1.8 1.693 4.583 0 6.372z"/></svg><svg viewBox="0 0 14 14" id="send" xmlns="http://www.w3.org/2000/svg"><path d="M12.343 1.243l-6.317 6.34a1.353 1.353 0 00-.228-.105l-4.17-1.411a.583.583 0 010-1.132l10.348-3.68a.659.659 0 01.21-.036.49.49 0 01.157.024zM12.746 2.024l-3.681 10.36a.583.583 0 01-.583.397.583.583 0 01-.584-.409L6.51 8.203a1.353 1.353 0 00-.105-.228l6.353-6.317c.035.12.031.25-.012.367z"/></svg><svg viewBox="0 0 16 10" id="slider-arrow-down" xmlns="http://www.w3.org/2000/svg"><path d="M1 1l7 7 7-7"/></svg><svg viewBox="0 0 16 10" id="slider-arrow-up" xmlns="http://www.w3.org/2000/svg"><path d="M1 8.5l7-7 7 7"/></svg></svg>