<?xml version="1.0" encoding="utf-8"?><svg viewBox="0 0 20 20" xmlns="http://www.w3.org/2000/svg" xmlns:xlink="http://www.w3.org/1999/xlink"><style>:root>svg{display:none}:root>svg:target{display:block}</style><svg viewBox="0 0 10 6" id="arrow-down" xmlns="http://www.w3.org/2000/svg"><path d="M.5.5L5 5 9.5.5"/></svg><svg viewBox="0 0 18 18" id="dest-icon" xmlns="http://www.w3.org/2000/svg"><path d="M17.068 1.76l-6.875 15a.625.625 0 01-1.19-.208L8.42 9.579l-6.973-.581a.625.625 0 01-.208-1.191l15-6.875a.625.625 0 01.828.828z"/></svg><svg viewBox="0 0 20 20" id="heart" xmlns="http://www.w3.org/2000/svg"><path d="M18.364 2.455A5.479 5.479 0 0014.362.708a5.485 5.485 0 00-4.007 1.746L10 2.827l-.353-.373a5.469 5.469 0 00-8.012 0 6.134 6.134 0 000 8.34l7.847 8.275a.715.715 0 001.037 0l7.845-8.275a6.133 6.133 0 000-8.34zM17.33 9.81l-7.328 7.729-7.33-7.73a4.687 4.687 0 010-6.372 4.04 4.04 0 015.94 0l.87.92a.736.736 0 001.038 0l.872-.919a4.04 4.04 0 015.938 0c1.68 1.8 1.693 4.583 0 6.372z"/></svg><svg viewBox="0 0 14 14" id="leaf" xmlns="http://www.w3.org/2000/svg"><g clip-path="url(#dclip0_1_199)"><path d="M13.654.15C13.286.044 4.262-.854 1.094 3.427c-1.404 1.896-1.425 4.496-.07 7.726a16.264 16.264 0 00-.89 2.257.456.456 0 10.871.27C3.42 5.87 11.27 2.093 13.676 1.139c.235-.094.547-.822-.022-.988z"/><path d="M2.472 12.13c1.306.548 2.613.829 3.827.829 1.092 0 2.11-.225 2.988-.68 1.765-.916 2.845-2.668 3.12-5.068.28-2.445.63-3.977.922-4.914-2.595 1.197-8.16 4.3-10.857 9.833z"/></g><defs><clipPath id="dclip0_1_199"><path d="M0 0h14v14H0z"/></clipPath></defs></svg><svg viewBox="0 0 14 14" id="map" xmlns="http://www.w3.org/2000/svg"><g clip-path="url(#eclip0_1_213)"><path d="M13.5 0a.5.5 0 00-.223.053L9.488 1.948 5.204.043C5.197.04 5.189.04 5.18.037a.5.5 0 00-.12-.03.744.744 0 00-.121 0 .519.519 0 00-.12.03c-.007.003-.015.003-.022.006l-4.5 2A.5.5 0 000 2.5v11a.5.5 0 00.703.457L5 12.047l4.297 1.91c.007.003.015 0 .023.004.12.055.26.052.378-.008.008-.003.017 0 .025-.005l4-2a.5.5 0 00.277-.448V.5a.5.5 0 00-.5-.5zm-9 11.175L1 12.73V2.825L4.5 1.27v9.905zM9 12.73l-3.5-1.555V1.27L9 2.825v9.905zm4-1.539l-3 1.5V2.809l3-1.5v9.882z"/></g><defs><clipPath id="eclip0_1_213"><path d="M0 0h14v14H0z"/></clipPath></defs></svg><svg viewBox="0 0 12 13" id="play" xmlns="http://www.w3.org/2000/svg"><path d="M12 6.5L.75 12.995V.005L12 6.5z"/></svg><svg viewBox="0 0 14 14" id="send" xmlns="http://www.w3.org/2000/svg"><path d="M12.343 1.243l-6.317 6.34a1.353 1.353 0 00-.228-.105l-4.17-1.411a.583.583 0 010-1.132l10.348-3.68a.659.659 0 01.21-.036.49.49 0 01.157.024zM12.746 2.024l-3.681 10.36a.583.583 0 01-.583.397.583.583 0 01-.584-.409L6.51 8.203a1.353 1.353 0 00-.105-.228l6.353-6.317c.035.12.031.25-.012.367z"/></svg><svg viewBox="0 0 16 10" id="slider-arrow-down" xmlns="http://www.w3.org/2000/svg"><path d="M1 1l7 7 7-7"/></svg><svg viewBox="0 0 16 10" id="slider-arrow-up" xmlns="http://www.w3.org/2000/svg"><path d="M1 8.5l7-7 7 7"/></svg></svg>